<svg width="79" height="43" viewBox="0 0 79 43" fill="none" xmlns="http://www.w3.org/2000/svg">
<path d="M18.1573 18.52V38.576H15.3973V18.52H18.1573ZM1.66635 26.225H8.42835C9.05701 26.225 9.51701 26.0487 9.80835 25.696C10.0997 25.3433 10.2453 24.8987 10.2453 24.362C10.2453 23.9633 10.1763 23.58 10.0383 23.212C9.90035 22.8287 9.73168 22.5373 9.53235 22.338C8.98035 21.786 8.24435 21.51 7.32435 21.51C6.20501 21.51 4.84035 21.9393 3.23035 22.798L1.89635 20.59C3.82835 19.532 5.66835 19.003 7.41635 19.003C9.11835 19.003 10.483 19.5167 11.5103 20.544C11.9703 21.0193 12.3307 21.5943 12.5913 22.269C12.852 22.9437 12.9823 23.6337 12.9823 24.339C12.9823 25.121 12.8137 25.8493 12.4763 26.524C12.1543 27.1987 11.6483 27.743 10.9583 28.157C10.2837 28.5557 9.44035 28.755 8.42835 28.755H5.66835C5.37701 29.261 5.14701 29.7363 4.97835 30.181C4.80968 30.6103 4.72535 31.032 4.72535 31.446C4.72535 32.044 4.93235 32.5423 5.34635 32.941C5.80635 33.3857 6.52701 33.608 7.50835 33.608C8.36701 33.608 9.35601 33.4393 10.4753 33.102C11.5947 32.7647 12.6833 32.32 13.7413 31.768V34.62C12.7293 35.0647 11.6713 35.425 10.5673 35.701C9.47868 35.977 8.44368 36.115 7.46235 36.115C5.69901 36.115 4.34968 35.655 3.41435 34.735C2.44835 33.7843 1.96535 32.688 1.96535 31.446C1.96535 30.618 2.18001 29.721 2.60935 28.755H1.66635V26.225ZM37.4738 18.52V38.576H34.7138V29.353H32.1608V26.593H34.7138V18.52H37.4738ZM33.3338 35.356C31.0184 36 29.1401 36.322 27.6988 36.322C25.2148 36.322 23.4208 35.4633 22.3168 33.746C21.8108 32.9793 21.5578 32.0977 21.5578 31.101C21.5578 30.0583 21.8414 28.8623 22.4088 27.513H21.0518V24.983H31.2178V27.513H25.3758C24.6551 29.0003 24.2948 30.2117 24.2948 31.147C24.2948 31.6223 24.4021 32.0287 24.6168 32.366C25.2454 33.3167 26.2958 33.792 27.7678 33.792C28.4731 33.792 29.2551 33.7 30.1138 33.516C30.9878 33.332 32.0611 33.0637 33.3338 32.711V35.356ZM32.1378 21.694H21.0518V19.164H32.1378V21.694ZM56.7902 18.52V38.576H54.0302V30.503H50.8562V27.743H54.0302V18.52H56.7902ZM40.2992 26.225H47.0612C47.6898 26.225 48.1498 26.0487 48.4412 25.696C48.7325 25.3433 48.8782 24.8987 48.8782 24.362C48.8782 23.9633 48.8092 23.58 48.6712 23.212C48.5332 22.8287 48.3645 22.5373 48.1652 22.338C47.6132 21.786 46.8772 21.51 45.9572 21.51C44.8378 21.51 43.4732 21.9393 41.8632 22.798L40.5292 20.59C42.4612 19.532 44.3012 19.003 46.0492 19.003C47.7512 19.003 49.1158 19.5167 50.1432 20.544C50.6032 21.0193 50.9635 21.5943 51.2242 22.269C51.4848 22.9437 51.6152 23.6337 51.6152 24.339C51.6152 25.121 51.4465 25.8493 51.1092 26.524C50.7872 27.1987 50.2812 27.743 49.5912 28.157C48.9165 28.5557 48.0732 28.755 47.0612 28.755H44.3012C44.0098 29.261 43.7798 29.7363 43.6112 30.181C43.4425 30.6103 43.3582 31.032 43.3582 31.446C43.3582 32.044 43.5652 32.5423 43.9792 32.941C44.4392 33.3857 45.1598 33.608 46.1412 33.608C46.9998 33.608 47.9888 33.4393 49.1082 33.102C50.2275 32.7647 51.3162 32.32 52.3742 31.768V34.62C51.3622 35.0647 50.3042 35.425 49.2002 35.701C48.1115 35.977 47.0765 36.115 46.0952 36.115C44.3318 36.115 42.9825 35.655 42.0472 34.735C41.0812 33.7843 40.5982 32.688 40.5982 31.446C40.5982 30.618 40.8128 29.721 41.2422 28.755H40.2992V26.225ZM60.9726 33.309H72.4726C72.7486 33.309 72.9556 33.286 73.0936 33.24C73.2316 33.1787 73.3006 33.1097 73.3006 33.033C73.3006 32.895 73.1626 32.7953 72.8866 32.734C72.4879 32.6113 71.8899 32.5117 71.0926 32.435C70.2952 32.3583 69.4059 32.32 68.4246 32.32C66.0326 32.32 63.8706 32.527 61.9386 32.941L61.3406 30.457C63.3492 30.0123 65.6799 29.79 68.3326 29.79C69.4672 29.79 70.5176 29.836 71.4836 29.928C72.4496 30.02 73.1932 30.1427 73.7146 30.296C74.4812 30.5413 75.0639 30.9093 75.4626 31.4C75.8612 31.8907 76.0606 32.4273 76.0606 33.01C76.0606 33.5007 75.9149 33.9607 75.6236 34.39C75.3476 34.8193 74.9336 35.172 74.3816 35.448C73.8449 35.7087 73.2086 35.839 72.4726 35.839H64.7446C64.6372 35.9463 64.5836 36.0537 64.5836 36.161C64.5836 36.345 64.7599 36.506 65.1126 36.644C65.6646 36.8893 66.6152 37.012 67.9646 37.012C69.3292 37.012 70.8626 36.8817 72.5646 36.621C74.2666 36.3757 75.7999 36.046 77.1646 35.632L77.9926 38.07C76.5359 38.5147 74.8952 38.8673 73.0706 39.128C71.2612 39.404 69.5899 39.542 68.0566 39.542C66.2932 39.542 64.9592 39.358 64.0546 38.99C63.3032 38.6527 62.7436 38.2387 62.3756 37.748C62.0076 37.2573 61.8236 36.736 61.8236 36.184C61.8236 36.0307 61.8312 35.9157 61.8466 35.839H60.9726V33.309ZM63.8246 22.637C63.8246 22.8977 64.2999 23.12 65.2506 23.304C66.2166 23.488 67.3129 23.58 68.5396 23.58C68.9996 23.58 69.3446 23.5723 69.5746 23.557C71.5372 23.4497 72.6796 23.166 73.0016 22.706C71.9742 22.5067 70.8549 22.3533 69.6436 22.246C68.4476 22.1233 67.3742 22.062 66.4236 22.062C64.6909 22.062 63.8246 22.2537 63.8246 22.637ZM77.8086 29.077H59.1326V26.731H77.8086V29.077ZM61.0646 18.428H63.8246V19.831C64.6832 19.6163 65.7336 19.509 66.9756 19.509C68.7849 19.509 70.8319 19.716 73.1166 20.13V18.612H75.8766V22.338C75.8766 24.638 73.8219 25.8877 69.7126 26.087C69.0992 26.1177 68.6392 26.133 68.3326 26.133C66.2779 26.133 64.5529 25.8647 63.1576 25.328C61.7622 24.776 61.0646 23.879 61.0646 22.637V18.428Z" fill="url(#paint0_linear_273_292)"/>
<path d="M58.4217 5.49531L42.053 11.2536L42.2801 12.2974C39.4426 13.6266 38.3176 13.6172 35.7197 12.2974L35.9467 11.2536L19.5801 5.49427M56.0645 3.19323L53.6207 1.39844C53.6259 1.67135 45.2499 1.60677 45.2499 1.60677C41.552 1.67656 39.1697 5.03073 39.1697 7.69323C39.1697 5.03073 36.7863 1.67656 33.0884 1.60677C33.0884 1.60677 24.7124 1.67135 24.7176 1.39844L22.2738 3.19323L39.1686 9.1901L56.0645 3.19323Z" stroke="url(#paint1_linear_273_292)" stroke-width="2" stroke-linecap="round" stroke-linejoin="round"/>
<defs>
<linearGradient id="paint0_linear_273_292" x1="0.5" y1="11" x2="28.1751" y2="60.6272" gradientUnits="userSpaceOnUse">
<stop stop-color="#965CB6"/>
<stop offset="1" stop-color="#630C92"/>
</linearGradient>
<linearGradient id="paint1_linear_273_292" x1="19.5801" y1="7.3446" x2="58.4217" y2="7.3446" gradientUnits="userSpaceOnUse">
<stop stop-color="#965CB6"/>
<stop offset="1" stop-color="#630C92"/>
</linearGradient>
</defs>
</svg>
