<svg width="49" height="49" viewBox="0 0 49 49" fill="none" xmlns="http://www.w3.org/2000/svg">
<path d="M24.5007 4.08301C20.4626 4.08301 16.5153 5.28042 13.1578 7.52384C9.80026 9.76725 7.18341 12.9559 5.63812 16.6866C4.09283 20.4172 3.68851 24.5223 4.47629 28.4828C5.26408 32.4432 7.20857 36.0811 10.0639 38.9364C12.9192 41.7918 16.5571 43.7363 20.5176 44.524C24.478 45.3118 28.5831 44.9075 32.3138 43.3622C36.0444 41.8169 39.2331 39.2001 41.4765 35.8426C43.7199 32.4851 44.9173 28.5377 44.9173 24.4997C44.9173 21.8185 44.3892 19.1636 43.3632 16.6866C42.3372 14.2095 40.8333 11.9588 38.9374 10.0629C37.0416 8.16705 34.7908 6.66317 32.3138 5.63713C29.8367 4.6111 27.1818 4.08301 24.5007 4.08301ZM24.5007 40.833C21.2702 40.833 18.1123 39.8751 15.4263 38.0803C12.7403 36.2856 10.6469 33.7347 9.41063 30.7502C8.1744 27.7656 7.85094 24.4816 8.48117 21.3132C9.11139 18.1448 10.667 15.2345 12.9512 12.9503C15.2355 10.666 18.1458 9.11041 21.3142 8.48018C24.4825 7.84996 27.7666 8.17341 30.7512 9.40964C33.7357 10.6459 36.2866 12.7394 38.0813 15.4254C39.8761 18.1114 40.834 21.2692 40.834 24.4997C40.834 28.8315 39.1132 32.986 36.0501 36.0491C32.987 39.1122 28.8325 40.833 24.5007 40.833Z" fill="#630C92"/>
<path d="M24.4993 12.2501C22.6042 12.2501 20.7866 13.003 19.4465 14.3431C18.1064 15.6832 17.3535 17.5008 17.3535 19.396C17.3535 19.9375 17.5686 20.4568 17.9515 20.8396C18.3344 21.2225 18.8537 21.4376 19.3952 21.4376C19.9367 21.4376 20.456 21.2225 20.8389 20.8396C21.2217 20.4568 21.4368 19.9375 21.4368 19.396C21.4368 18.7903 21.6165 18.1982 21.953 17.6945C22.2895 17.1909 22.7678 16.7984 23.3274 16.5666C23.887 16.3348 24.5027 16.2741 25.0968 16.3923C25.6909 16.5105 26.2366 16.8022 26.6649 17.2305C27.0932 17.6588 27.3848 18.2044 27.503 18.7985C27.6212 19.3926 27.5605 20.0083 27.3287 20.5679C27.0969 21.1275 26.7044 21.6058 26.2008 21.9423C25.6972 22.2789 25.1051 22.4585 24.4993 22.4585C23.9579 22.4585 23.4386 22.6736 23.0557 23.0565C22.6728 23.4393 22.4577 23.9587 22.4577 24.5001V28.5835C22.4577 29.125 22.6728 29.6443 23.0557 30.0271C23.4386 30.41 23.9579 30.6251 24.4993 30.6251C25.0408 30.6251 25.5601 30.41 25.943 30.0271C26.3259 29.6443 26.541 29.125 26.541 28.5835V26.2151C28.1909 25.7333 29.611 24.6714 30.5396 23.225C31.4682 21.7786 31.8427 20.0454 31.594 18.3446C31.3454 16.6439 30.4904 15.0904 29.1866 13.9704C27.8828 12.8504 26.2181 12.2395 24.4993 12.2501Z" fill="#630C92"/>
<path d="M24.5007 36.7503C25.6282 36.7503 26.5423 35.8362 26.5423 34.7087C26.5423 33.5811 25.6282 32.667 24.5007 32.667C23.3731 32.667 22.459 33.5811 22.459 34.7087C22.459 35.8362 23.3731 36.7503 24.5007 36.7503Z" fill="#630C92"/>
</svg>
